<!-- Eslimi surah frame — Wikimedia Commons (Ahmad252), CC BY-SA 4.0 -->
<svg xmlns="http://www.w3.org/2000/svg" viewBox="0 0 1000 1000" width="1000" height="1000">
<path fill="none" stroke="#000" stroke-width="4" stroke-miterlimit="10" d="M429.4,13.9c39.2,1.4,71.4-1.4,105.7,4.2l36.4-4.2c17.5,4.2,15.4,23.1,37.8,25.9c11.2-5.6,15.4-13.3,30.1-14.7
	c9.1,12.6,16.8,8.4,32.2,11.9c4.2,11.9,8.4,22.4,16.1,30.8c14,1.4,23.1-0.7,35-4.2c13.3,6.3,18.2,17.5,28.7,24.5l21.7,8.4
	c4.9,3.5,4.9,11.2,8.4,14.7l13.3,1.4l49,37.8l1.4,1.4c6.3,10.5,3.5,27.3,8.4,37.8c10.5,2.8,23.1,2.8,35,5.6
	c6.3,15.4,11.2,18.2,20.3,28.7c-1.4,17.5-10.5,29.4,1.4,39.2c6.3,10.5,23.1,7.7,28.7,17.5c8.4,14,11.9,56,17.5,71.4l7,4.2
	c2.1,11.2,4.2,22.4,5.6,33.6l13.3,23.1c5.6,20.3-12.6,23.8-13.3,44.8c5.6,10.5,15.4,15.4,23.1,23.1c-0.7,9.8-5.6,11.9-7,17.5
	c-2.1,6.3,9.1,11.9,5.6,20.3c-4.2,9.1-15.4,14.7-21.7,21.7c0.7,21,18.2,26.6,13.3,46.2c-4.9,16.1-18.9,45.5-25.9,60.9l1.4,16.1
	l-13.3,21.7c-2.1,11.2-4.2,22.4-5.6,33.6c-4.9,7.7-28,16.1-35,21.7c0,14,7.7,28,0,40.6c-14,4.9-8.4,16.1-18.9,23.1
	c-8.4,4.2-23.1,2.8-32.2,5.6c-4.9,9.8-2.1,27.3-8.4,37.8l-1.4,1.4l-49,37.8l-13.3,1.4c-4.2,3.5-4.2,11.2-8.4,14.7l-21.7,8.4
	c-10.5,7.7-16.1,18.2-28.7,24.5c-13.3-4.2-23.8-6.3-37.8-2.8c-4.9,7.7-8.4,24.5-16.1,28.7c-13.3,7-13.3-1.4-30.1,11.9
	c-16.1-2.1-17.5-12.6-35-14.7c-12.6,6.3-18.9,23.1-32.2,25.9l-24.5-4.2l-25.9,4.2c-20.3,3.5-37.8-3.5-59.5-4.2l-32.2,4.2
	c-17.5-4.2-15.4-23.1-37.8-25.9l-24.5,14.7c-10.5-2.1-9.1-9.1-16.1-11.9c-6.3-2.1-15.4,1.4-21.7,0c-4.2-11.9-8.4-22.4-16.1-30.8
	c-14-1.4-23.1,0.7-35,4.2c-13.3-6.3-18.2-17.5-28.7-24.5l-21.7-8.4c-4.9-3.5-4.9-11.2-8.4-14.7l-13.3-1.4l-49-37.8l-1.4-1.4
	c-6.3-10.5-3.5-27.3-8.4-37.8c-10.5-2.8-23.1-2.8-35-5.6c-6.3-15.4-11.2-18.2-20.3-28.7c2.1-9.1,4.2-18.2,5.6-27.3
	c-9.8-23.1-27.3-14.7-36.4-28.7c-8.4-14-11.9-56-17.5-71.4l-7-4.2l-5.6-33.6l-13.3-23.1c-5.6-20.3,12.6-23.8,13.3-44.8
	c-5.6-10.5-15.4-15.4-23.1-23.1l7-20.3c-0.7-4.9-6.3-8.4-7-17.5c7-7,18.2-11.9,21.7-21.7c7.7-22.4-17.5-23.8-11.9-46.2
	c4.2-16.1,19.6-45.5,25.9-60.9l-1.4-16.1l13.3-21.7l5.6-33.6c4.9-7.7,28-16.1,35-21.7c0-14-7.7-28,0-40.6c14-4.9,8.4-16.1,18.9-23.1
	c9.1-4.9,23.8,1.4,32.2-5.6c11.2-9.1,1.4-25.9,8.4-37.8l1.4-1.4l49-37.8l13.3-1.4c4.2-3.5,4.2-11.2,8.4-14.7l22.4-8.4
	c10.5-7.7,16.1-18.2,28.7-24.5c10.5,3.5,26.6,9.1,36.4,1.4c10.5-6.3,7.7-21,17.5-27.3c13.3-7,13.3,1.4,30.1-11.9
	c16.1,2.1,17.5,12.6,35,14.7C411.2,33.5,417.5,23,429.4,13.9z M429.4,28.6c-13.3,26.6-39.2,29.4-62.3,11.9l-2.8,2.8
	c11.2,3.5,12.6,10.5,8.4,21.7c24.5,0,114.1,9.8,119,5.6c-7.7-18.2-11.9-26.6-1.4-42C468.6,28.6,451.1,29.3,429.4,28.6L429.4,28.6z
	 M510.6,28.6c2.8,4.9,5.6,9.8,8.4,14.7c-3.5,9.8-9.8,21-8.4,30.8h1.4c17.5-9.8,86.1-9.1,116.2-8.4c-4.2-11.9-2.1-18.2,8.4-21.7
	l-2.8-2.8c-23.8,18.9-47.6,14-62.3-11.9C549.8,29.3,532.3,28.6,510.6,28.6L510.6,28.6z M499.4,38.4l-2.8,5.6l4.2,7
	c3.5-4.2,3.5-5.6,2.8-11.9L499.4,38.4z M338.4,48.9c-4.9,37.1-30.1,32.2-60.9,28.7c-11.9,15.4-27.3,23.1-44.8,33.6l1.4,2.8
	c19.6,4.2,14.7,21,23.1,35l4.2-2.8c12.6-25.9,64.4-49.7,85.4-72.8c-7-9.1-9.8-12.6-4.2-24.5H338.4L338.4,48.9z M658.3,48.9l4.2,13.3
	c-2.8,4.2-5.6,7.7-8.4,11.9c25.9,27.3,60.9,51.1,89.6,75.6h1.4c2.8-17.5,20.3-38.5,20.3-40.6c-20.3-6.3-29.4-18.9-43.4-30.8
	c-21.7,2.8-44.1,9.8-55.3-11.9C663.2,58,666,53.1,658.3,48.9z M353.8,54.5c0.7,7-2.8,4.9,5.6,7l2.1-1.4v-5.6H353.8z M639.4,54.5
	l1.4,7h5.6l1.4-4.2l-1.4-2.8H639.4L639.4,54.5z M362.9,77.6l-42,35c26.6,0,44.8,14.7,60.9,13.3c5.6-18.9,21-36.4,37.8-43.4v-1.4
	L362.9,77.6z M626.8,77.6L582,80.4v1.4h2.8l23.1,20.3l14.7,24.5c17.5-8.4,31.5-14.7,58.1-14.7l-2.8-4.2l-39.2-30.8L626.8,77.6
	L626.8,77.6z M455.3,80.4c-20.3,9.1-72.1,29.4-60.9,56.7l25.9,16.1v-2.8c21-21,35-51.1,65.1-62.3C479.8,82.5,467.2,80.4,455.3,80.4z
	 M535.1,80.4c-7,2.8-15.4,2.8-20.3,7h2.8c21.7,19.6,50.4,35.7,62.3,65.1l4.2-1.4l24.5-18.9C595.3,105.6,575,81.8,535.1,80.4
	L535.1,80.4z M499.4,93.7c-25.2,21-53.9,36.4-67.9,67.9c33.6,16.1,63.7,44.8,114.8,18.9l24.5-18.9
	C556.8,135.7,528.1,103.5,499.4,93.7L499.4,93.7z M213.1,124.5c-13.3,15.4-28,23.8-46.2,35c1.4,55.3-20.3,33.6-46.2,51.1
	c14-2.1,16.1,3.5,21.7,13.3c30.1-19.6,72.8-40.6,98.7-63.7l-25.9-23.1L213.1,124.5z M786.4,124.5l-1.4,13.3
	c-4.9,10.5-16.8,14-24.5,21.7c20.3,17.5,75.6,53.2,100.1,63.7c2.1-11.9,8.4-15.4,20.3-13.3c-5.6-3.5-17.5-1.4-24.5-4.2
	c-21.7-8.4-15.4-28-24.5-49C810.2,149,801.8,135,786.4,124.5L786.4,124.5z M770.3,125.9c-4.9,4.2-6.3,4.2-7,13.3l8.4-5.6
	L770.3,125.9z M229.2,127.3l1.4,8.4l7,2.8v-4.2l-1.4-5.6L229.2,127.3z M311.8,127.3c-20.3,9.8-32.2,12.6-43.4,30.8
	c31.5-9.1,72.1,7,94.5,14.7c3.5-11.2,7-22.4,9.8-33.6C354.5,132.2,341.2,127.3,311.8,127.3L311.8,127.3z M655.5,127.3l-27.3,11.9
	l11.9,33.6c20.3-9.8,62.3-22.4,93.1-14.7C717.1,133.6,696.8,126.6,655.5,127.3L655.5,127.3z M384.6,147.6c-4.9,18.9-10.5,28-8.4,49
	l32.2,11.9c3.5-13.3,13.3-21,14.7-30.8C412.6,165.1,402.1,152.5,384.6,147.6z M612.1,147.6c-12.6,12.6-23.8,18.9-35,33.6
	c7,9.1,12.6,18.9,17.5,28.7c9.8-5.6,16.8-11.2,30.1-13.3C627.5,180.5,626.8,154.6,612.1,147.6z M261.4,170.7
	c-7.7,28.7-21,58.1-16.1,95.9c63.7,1.4,103.6-24.5,111.3-81.2C332.8,172.1,299.9,170.7,261.4,170.7z M697.5,170.7
	c-18.9,7-38.5,5.6-53.9,14.7v1.4c11.9,55.3,46.2,81.2,111.3,79.8c5.6-37.1-7.7-67.9-16.1-95.9H697.5L697.5,170.7z M230.6,266.6
	c-0.7-37.8,4.2-67.9,16.1-93.1c-39.9,9.1-56.7,46.9-49,94.5L230.6,266.6z M770.3,266.6l33.6,1.4c7.7-47.6-9.8-85.4-49-94.5
	C766.1,199.4,770.3,228.1,770.3,266.6z M435,191c-9.1,6.3-18.9,18.2-14.7,28.7c16.8,7.7,40.6,29.4,49,44.8l2.8-1.4l18.9-30.8
	C476.3,216.2,462.3,196.6,435,191z M561.7,191c-11.9,7.7-56.7,31.5-49,44.8l18.9,28.7v-2.8l52.5-46.2l-13.3-23.1L561.7,191z
	 M483.3,204.3l17.5,17.5l17.5-17.5H483.3L483.3,204.3z M187.2,208.5c-46.2,37.1-39.2,21-60.9,85.4c18.2-11.9,32.2-16.8,58.1-24.5
	V268C176,247.7,189.3,221.1,187.2,208.5L187.2,208.5z M812.3,208.5c4.9,18.2,2.1,45.5,5.6,62.3c26.6,0.7,40.6,12.6,56.7,23.1
	C858.5,242.8,857.1,230.9,812.3,208.5L812.3,208.5z M372.7,211.3c-7.7,7.7-32.9,52.5-18.9,67.9l32.2,13.3c0.7-25.2,7-51.8,16.1-71.4
	C390.9,217.6,388.1,212,372.7,211.3L372.7,211.3z M617.7,211.3l-18.9,10.5l17.5,71.4l33.6-13.3c0.7-24.5-5.6-58.1-21.7-66.5
	L617.7,211.3z M123.5,222.5l-2.8,7h5.6l2.8-2.8l-1.4-4.2H123.5L123.5,222.5z M873.2,222.5c0.7,7-2.8,6.3,7,7l-2.8-7H873.2z
	 M104.6,228.8c7,31.5,3.5,51.8-30.1,58.1c-7,19.6-14.7,40.6-18.9,58.1H57c21-8.4,23.8,8.4,42,14.7c-4.9-18.9,19.6-93.8,27.3-113.4
	v-1.4C110.2,243.5,113,236.5,104.6,228.8z M893.5,228.8c-2.1,14.7-7.7,12.6-18.9,17.5c8.4,21,32.9,92.4,27.3,113.4
	c19.6-6.3,19.6-21,43.4-14.7c-0.7-3.5-20.3-56.7-21.7-58.1c-15.4-7-39.9-14.7-33.6-42C892.1,237.2,897,235.1,893.5,228.8z
	 M411.9,230.2L400,288.3h1.4l55.3-18.9l-16.1-17.5L411.9,230.2z M587.6,230.2l-43.4,39.2v1.4l56.7,17.5v-10.5L587.6,230.2z
	 M499.4,244.9c-5.6,9.8-11.9,19.6-17.5,28.7c0.7,0.7,0.7,2.1,1.4,2.8c6.3,2.8,18.2,7,27.3,2.8l8.4-5.6
	C514.1,264.5,508.5,249.8,499.4,244.9L499.4,244.9z M339.8,250.5l-25.9,18.9l2.8,1.4l21.7,4.2C338.4,266.6,339.1,258.9,339.8,250.5
	L339.8,250.5z M659.7,250.5c0.7,8.4,2.1,16.1,2.8,24.5l24.5-5.6L659.7,250.5z M227.8,279.2l-27.3,1.4c2.1,22.4,12.6,32.9,20.3,47.6
	c9.1-4.2,18.9-6.3,32.2-8.4c-0.7-11.2-2.1-22.4-2.8-33.6C241.1,283.4,239.7,279.9,227.8,279.2L227.8,279.2z M762.6,279.2l-13.3,10.5
	c2.1,9.8-2.8,25.2,1.4,30.8c10.5,4.2,21,4.9,28.7,8.4c7.7-14.7,17.5-25.2,20.3-47.6h-25.2L762.6,279.2z M281.7,282l-17.5,9.1
	c-1.4,10.5,0.7,18.2,2.8,27.3c25.2,2.1,51.8,3.5,72.8,8.4c-2.1-8.4,0-31.5-5.6-37.8C320.9,282.7,299.9,282,281.7,282L281.7,282z
	 M701.7,282l-37.8,7l-2.8,37.8c9.8-2.1,67.9-6.3,72.8-11.9c6.3-10.5,4.2-21-1.4-28.7C721.3,285.5,715.7,282.7,701.7,282L701.7,282z
	 M178.8,284.1c-35.7,15.4-67.2,22.4-66.5,74.2l50.4-32.2l33.6-11.9l-9.1-30.1H178.8L178.8,284.1z M813.7,284.1
	c-2.1,11.2-4.9,22.4-7,33.6c34.3,2.1,59.5,25.2,82.6,40.6C890,312.1,856.4,284.8,813.7,284.1L813.7,284.1z M432.2,291.1l-20.3,17.5
	l11.9,13.3h20.3c11.2-4.9,14.7-13.3,16.1-27.3L432.2,291.1z M555.4,291.1l-14.7,2.8c0.7,7,2.1,15.4,5.6,18.9l9.8,10.5
	c18.9,0.7,22.4-5.6,32.2-13.3l-1.4-2.8L568,291.1L555.4,291.1L555.4,291.1z M352.4,328.9c17.5,0,28-8.4,30.1-23.1l-33.6-13.3
	C351,304.4,351.7,316.3,352.4,328.9z M648.5,328.9c0.7-11.9,2.1-24.5,2.8-36.4l-33.6,13.3C620.5,320.5,631,328.9,648.5,328.9
	L648.5,328.9z M487.5,293.9l4.2,13.3c7.7,2.1,9.1,2.1,17.5,0l4.2-13.3H487.5z M472.8,298.1l-1.4,8.4h5.6
	C475.6,304.4,474.2,300.9,472.8,298.1z M526.7,298.1c-0.7,2.8-2.1,5.6-2.8,8.4h5.6C528.8,304.4,527.4,300.9,526.7,298.1z
	 M403.5,319.8l1.4,10.5l4.2-1.4C407.7,322.6,407,323.3,403.5,319.8z M468.6,319.8c-0.7,11.9,1.4,23.8,5.6,35
	c21,0.7,34.3,4.2,53.9-1.4c1.4-11.2,2.8-22.4,4.2-33.6H519c0,5.6,1.4,4.9-4.2,8.4c-5.6,0.7-6.3-3.5-11.9-4.2
	c-9.8-1.4-11.9,4.9-20.3,4.2c-1.4-4.2-2.1-4.2-1.4-8.4H468.6L468.6,319.8z M596,319.8l-4.2,8.4l4.2,1.4V319.8z M388.8,326.1
	c-4.9,7-11.9,11.9-20.3,14.7l2.8,1.4l9.8,7l11.9-7L388.8,326.1z M610.7,326.1c-2.8,9.1-2.8,13.3,1.4,20.3c10.5,2.8,10.5,0,20.3-4.2
	v-2.1L610.7,326.1z M191.4,330.3c-28,14-58.8,21-77,44.8c4.2,31.5,21.7,69.3,42,85.4c42-22.4,67.2-72.8,43.4-130.2H191.4
	L191.4,330.3z M453.9,330.3c-4.9,6.3-7.7,6.3-17.5,5.6l11.9,25.9h5.6l7-4.2L453.9,330.3z M545.6,330.3c-0.7,12.6-5.6,23.1-2.8,30.8
	l9.8,1.4l11.9-25.9C554,336.6,552.6,335.2,545.6,330.3L545.6,330.3z M800.4,330.3c-23.8,58.1,1.4,107.8,43.4,130.2
	c21-16.8,38.5-54.6,42-86.8C862.7,356.2,838.2,332.4,800.4,330.3L800.4,330.3z M255.8,333.1l-24.5,4.2l-4.2,5.6
	c-0.7,32.2,12.6,44.1,21.7,65.1l37.8-10.5l-2.8-2.8L255.8,333.1z M269.8,333.1l24.5,55.3l2.8-1.4c6.3-18.9,22.4-32.9,33.6-47.6h-2.8
	C314.6,332.4,288,333.1,269.8,333.1L269.8,333.1z M712.2,333.1l-42,5.6c11.9,16.1,23.1,32.9,35,49l2.8-1.4l23.1-53.9h-18.9V333.1z
	 M744.4,333.1c-5.6,25.2-20.3,45.5-28.7,66.5l37.8,8.4v-2.8c8.4-8.4,35.7-56,14.7-67.9L744.4,333.1z M419.6,335.9l-8.4,7
	c2.1,4.2,2.8,4.2,1.4,8.4c-4.2,4.9-11.2,1.4-16.1,5.6l-7,13.3l-14-2.1l-5.6,5.6l2.8,2.8l20.3,21.7l4.2-4.2
	c16.1-4.9,28-16.8,39.2-27.3C432.2,354.8,428,342.9,419.6,335.9L419.6,335.9z M580.6,335.9c-4.9,7-18.9,24.5-13.3,32.2
	c10.5,12.6,28,18.2,39.2,30.8l2.8-2.8c9.1-4.2,16.8-13.3,21.7-21.7l-2.8-4.2l-5.6-2.8l-11.9,4.2c-6.3-13.3-13.3-9.8-21.7-18.9
	c-2.1-6.3,0.7-6.3-1.4-11.9L580.6,335.9z M360.1,352l2.8,8.4l5.6-4.2h-2.8L360.1,352z M639.4,352l-7,4.2l1.4,2.8l4.2,1.4l1.4-2.8
	L639.4,352L639.4,352z M65.4,354.8l-4.2,1.4l1.4,4.2l2.8,2.8l9.8-1.4l-4.2-5.6L65.4,354.8z M932.7,354.8l-7,7
	c7,0.7,7.7,0.7,13.3-1.4l1.4-4.2L932.7,354.8z M344,357.6l-21.7,14.7c-1.4,8.4-2.8,17.5-4.2,25.9h9.8c10.5,2.8,16.1-3.5,23.1-8.4
	l2.8-17.5C351.7,366,350.3,360.4,344,357.6L344,357.6z M683.5,398.2c0-10.5-2.1-21.7-7-27.3c-4.2-6.3-14-11.2-23.1-13.3l-5.6,20.3
	l7,16.1C664.6,397.5,668.1,398.9,683.5,398.2z M47.9,365.3c-5.6,21-14.7,39.9-17.5,58.1c35,28,0.7,45.5-8.4,65.1
	c9.8-7,15.4-8.4,25.9-1.4c8.4-35,25.2-80.5,43.4-108.5l-2.8-3.5C69.6,379.3,60.5,372.3,47.9,365.3L47.9,365.3z M950.2,365.3
	l-5.6,10.5c-11.9,0.7-28.7-1.4-35,2.8c18.2,30.1,33.6,72.8,43.4,108.5c8.4-4.9,25.9-2.1,25.9-2.8c-29.4-10.5-23.8-42-8.4-62.3
	c-0.7-4.9-16.1-52.5-18.9-56.7H950.2L950.2,365.3z M499.4,370.9l-7,2.8l1.4,2.8c8.4,2.1,8.4,2.1,16.1-1.4
	C506.4,373,503.6,371.6,499.4,370.9L499.4,370.9z M458.8,376.5c-3.5,6.3-2.8,13.3-1.4,21.7l18.9-7
	C471.4,382.8,470.7,377.2,458.8,376.5z M533.7,376.5l-8.4,16.1l18.9,5.6c1.4-8.4,1.4-15.4-1.4-21.7L533.7,376.5L533.7,376.5z
	 M101.8,387c-23.8,33.6-11.2,81.9,17.5,102.9l25.9-20.3c-10.5-15.4-22.4-30.1-30.1-47.6L101.8,387z M897.7,387
	c-11.2,33.6-29.4,56.7-42,84l25.9,18.9C905.4,473.1,930.6,412.9,897.7,387L897.7,387z M364.3,389.8c-2.1,8.4-5.6,10.5-9.8,16.1
	c14.7,4.9,18.9,14.7,30.1,7v-1.4C381.1,403.1,371.3,394.7,364.3,389.8z M635.2,389.8c-6.3,7.7-16.1,12.6-18.9,23.1l5.6,5.6
	l24.5-13.3l-2.8-4.2C638.7,398.2,638.7,394,635.2,389.8L635.2,389.8z M225,392.6l-11.9,33.6l23.1-13.3L225,392.6z M430.8,392.6
	c-5.6,4.2-8.4,4.9-11.9,11.9l11.9-1.4C432.2,396.8,435,395.4,430.8,392.6L430.8,392.6z M567.3,392.6c0.7,3.5,2.1,7,2.8,10.5
	l11.9,1.4C578.5,396.8,575,394.7,567.3,392.6z M774.5,392.6l-8.4,23.1l21.7,10.5L774.5,392.6z M494.5,402.4
	c-40.6,19.6-71.4,20.3-86.8,65.1c-21.7,63,39.9,140.7,98.7,128.8C628.2,573.9,624,403.1,494.5,402.4L494.5,402.4z M316.7,411.5
	c2.8,4.2,2.8,4.2,8.4,5.6l-1.4-5.6H316.7L316.7,411.5z M677.2,411.5l-1.4,5.6c5.6-1.4,5.6-2.1,8.4-5.6H677.2z M284.5,412.9l-27.3,7
	l23.1,27.3h2.8c7.7-9.8,12.6-17.5,9.8-35h-8.4V412.9z M708,412.9c-2.8,16.1,1.4,27.3,11.9,35h2.8l21.7-27.3L708,412.9z M339.8,414.3
	l-2.8,9.8l7,8.4c-7,10.5-8.4,14-9.8,28.7l-11.9,4.2c-0.7,2.8-0.7,5.6-1.4,8.4c10.5,2.1,23.1,6.3,35,2.8c3.5-16.1,11.9-30.1,14.7-49
	L339.8,414.3z M659.7,414.3L631,429c2.1,20.3,9.1,35.7,16.1,51.1l33.6-4.2v-4.2c-0.7-2.1-0.7-4.2-1.4-5.6l-13.3-4.2
	c2.1-16.1-2.1-17.5-8.4-27.3c3.5-5.6,5.6-5.6,7-13.3L659.7,414.3z M400.7,419.9l-5.6,2.8v10.5l9.8,10.5l8.4-7l4.2-10.5L400.7,419.9z
	 M596,419.9l-13.3,5.6l11.9,17.5l11.9-10.5v-1.4c-0.7-3.5-0.7-7-1.4-10.5L596,419.9z M309,424.1l-8.4,24.5h5.6
	c14.7-3.5,15.4-12.6,7-23.1L309,424.1z M690.5,424.1l-8.4,7c-0.7,15.4,4.9,17.5,18.9,17.5L690.5,424.1z M242.5,426.2
	c-21.7,13.3-40.6,18.9-55.3,39.2c1.4,15.4,9.8,17.5,17.5,25.9l62.3-36.4L242.5,426.2z M755.6,426.2L733.9,457
	c21.7,5.6,46.2,21,60.9,35l5.6-5.6c8.4-3.5,12.6-9.8,13.3-21.7C795.5,449.3,781.5,433.2,755.6,426.2L755.6,426.2z M75.9,449.3
	c-12.6,37.1-21,42-7,79.8c3.5,9.1,2.8,16.8,9.8,21.7c4.2-25.2,18.2-35,30.1-51.1l-23.1-25.9C81.5,465.4,82.2,454.9,75.9,449.3z
	 M922.2,449.3c-4.2,25.2-18.2,35-30.1,51.1l14.7,14.7c4.2,9.8,11.2,25.9,17.5,36.4h1.4c12.6-37.1,21-42,7-79.8
	C929.2,461.9,929.9,454.2,922.2,449.3L922.2,449.3z M383.2,452.1c-3.5,5.6-6.3,9.8-4.2,17.5l7-5.6v-1.4L383.2,452.1z M616.3,452.1
	l-1.4,11.9l5.6,5.6l2.8-1.4v-1.4C622.6,459.1,621.2,455.6,616.3,452.1L616.3,452.1z M300.6,461.9c2.1,2.8,3.5,3.5,5.6,5.6l2.8-5.6
	H300.6L300.6,461.9z M691.9,461.9c2.8,7-0.7,2.8,5.6,4.2l2.8-2.8v-1.4H691.9z M267,469.6l-49,30.8l1.4,2.8l49,27.3
	C267.7,510.2,267.7,489.9,267,469.6L267,469.6z M732.5,469.6v60.9c16.8-7,39.2-17.5,50.4-30.8C771,487.1,750,476.6,732.5,469.6
	L732.5,469.6z M169.7,475.2c-17.5,7.7-25.9,16.1-40.6,23.1c2.1,2.8,0,0.7,2.8,2.8c9.8,12.6,21.7,21,42,23.1
	c5.6-11.2,13.3-16.1,20.3-24.5C189.3,493.4,178.1,478,169.7,475.2L169.7,475.2z M291.5,475.2c-8.4,17.5-14,33.6,1.4,49
	c12.6-6.3,16.8-10.5,21.7-24.5C310.4,486.4,305.5,479.4,291.5,475.2L291.5,475.2z M706.6,475.2c-10.5,8.4-14.7,10.5-20.3,24.5
	c4.9,14,9.1,18.9,21.7,24.5C719.9,512.3,723.4,485,706.6,475.2L706.6,475.2z M827,475.2c-15.4,28-28,21.7,1.4,49
	c21-3.5,31.5-12.6,43.4-24.5v-1.4C855,490.6,850.8,478.7,827,475.2L827,475.2z M386,489.9l-14.7,5.6c-0.7,1.4-0.7,2.8-1.4,4.2l4.2,7
	l16.1,2.8C391.6,501.1,393.7,493.4,386,489.9z M610.7,489.9v20.3l18.9-5.6c0.7-1.4,0.7-2.8,1.4-4.2
	C626.8,492.7,621.2,490.6,610.7,489.9z M326.5,491.3v17.5c10.5-0.7,24.5-1.4,28.7-8.4l-1.4-6.3L326.5,491.3z M668.8,491.3
	c-9.1,3.5-18.2,0.7-23.1,8.4l1.4,5.6l27.3,2.8v-17.5h-5.6V491.3z M33.9,495.5l-1.4,4.2l1.4,4.2c5.6-1.4,4.2-1.4,7-4.2l-2.8-4.2
	C38.1,495.5,33.9,495.5,33.9,495.5z M962.8,495.5l-2.8,4.2c2.8,3.5,2.1,2.8,7,4.2l1.4-4.2C966.3,496.2,967.7,497.6,962.8,495.5
	L962.8,495.5z M204.7,508.8c-7.7,9.1-16.1,10.5-17.5,27.3c18.2,14.7,32.2,27.3,56.7,37.8l23.1-30.8C242.5,536.8,225,520,204.7,508.8
	z M794.8,508.8c-17.5,15.4-41.3,22.4-60.9,36.4l21.7,28.7c23.8-6.3,45.5-21,58.1-39.2C812.3,520,803.9,515.1,794.8,508.8z
	 M117.9,510.2c-22.4,28-42,65.1-16.1,102.9l2.8-1.4c4.2-35.7,28-56.7,40.6-82.6L117.9,510.2z M880.2,510.2l-24.5,20.3
	c17.5,25.2,31.5,53.2,42,82.6l5.6-4.2C915.9,573.9,914.5,525.6,880.2,510.2L880.2,510.2z M22,511.6c5.6,11.9,20.3,14.7,23.1,30.8
	c3.5,19.6-14.7,28-13.3,40.6c0.7,4.2,14.7,48.3,17.5,52.5c16.8-15.4,28-4.9,42-13.3c-18.2-30.1-33.6-72.8-43.4-108.5l-16.1,5.6
	L22,511.6z M977.5,511.6l-8.4,7c-8.4-0.7-10.5-2.8-16.1-5.6c-4.9,18.9-43.4,106.4-40.6,112c17.5-3.5,28.7,0,39.2,10.5l2.8-1.4
	c0.7-25.9,12.6-35.7,16.1-56.7C931.3,545.2,978.9,524.2,977.5,511.6z M337,520l-16.1,4.2v4.2c0.7,2.1,0.7,4.2,1.4,5.6
	c5.6,1.4,8.4,1.4,11.9,5.6c3.5,11.9,3.5,16.1,9.8,25.9c-3.5,5.6-5.6,5.6-7,13.3l2.8,5.6h1.4l28.7-16.1c-2.8-19.6-9.1-34.3-16.1-49
	L337,520L337,520z M647.1,520c-5.6,14-18.2,34.3-14.7,52.5l28.7,13.3l1.4-1.4c0.7-10.5-1.4-9.8-5.6-17.5c7-10.5,8.4-14,9.8-28.7
	l11.9-4.2c0.7-2.8,0.7-5.6,1.4-8.4L647.1,520z M379,530.5c-1.4,7.7,0,12.6,5.6,17.5l1.4-11.9L379,530.5z M621.2,530.5l-5.6,7
	L617,548l4.2-2.8C622.6,538.2,624.7,535.4,621.2,530.5L621.2,530.5z M306.2,531.9l-5.6,2.8v2.8h8.4L306.2,531.9z M693.3,531.9
	l-1.4,5.6h8.4v-2.8L693.3,531.9z M155.7,538.9c-16.8,24.5-36.4,50.4-40.6,86.8c18.9,14,55.3,49.7,86.8,42
	C213.8,608.9,208.9,557.8,155.7,538.9z M842.4,538.9c-38.5,32.9-70,62.3-42,130.2c32.2-0.7,70.7-25.2,85.4-44.8
	C882.3,596.3,864.8,549.4,842.4,538.9z M300.6,550.8l8.4,24.5c10.5-4.9,12.6-13.3,5.6-23.1L300.6,550.8z M689.1,550.8
	c-9.1,7-8.4,14.7-1.4,23.1l4.2,1.4v-2.8l8.4-21.7H689.1z M278.9,552.2l-21.7,27.3l36.4,7C295.7,571.1,292.2,555.7,278.9,552.2
	L278.9,552.2z M717.8,552.2c-7.7,9.8-12.6,17.5-9.8,35h7l28.7-7l-2.8-2.8C737.4,567.6,728.3,555,717.8,552.2L717.8,552.2z
	 M404.9,556.4l-9.8,11.9c0.7,3.5,0.7,7,1.4,10.5l4.2,1.4l17.5-5.6l-1.4-4.2L404.9,556.4z M594.6,556.4l-11.9,17.5
	c9.1,2.1,12.6,7,20.3,2.8c2.8-2.8,2.1-2.8,2.8-8.4L594.6,556.4z M213.1,573.9l13.3,33.6v-2.8l9.8-17.5L213.1,573.9z M786.4,573.9
	l-21.7,13.3l2.8,2.8l7,17.5l2.8-1.4C780.1,594.9,782.9,584.4,786.4,573.9L786.4,573.9z M377.6,580.9l-23.1,13.3l2.8,4.2
	c4.9,2.8,5.6,4.9,7,11.9c7-4.9,16.8-13.3,20.3-21.7L377.6,580.9z M622.6,580.9l-5.6,7c3.5,8.4,13.3,16.8,20.3,21.7
	c2.1-8.4,5.6-10.5,9.8-16.1h-2.8L622.6,580.9z M320.9,582.3l-4.2,5.6h5.6l2.8-5.6H320.9L320.9,582.3z M675.8,582.3v4.2l2.8,1.4h5.6
	l-4.2-5.6C680,582.3,675.8,582.3,675.8,582.3z M248.1,591.4c-4.9,11.9-37.8,57.4-14.7,71.4l23.1,4.2c5.6-25.2,20.3-45.5,28.7-66.5
	L248.1,591.4z M747.2,591.4L715,601.9c11.2,18.9,23.1,41.3,28.7,65.1c10.5-2.1,22.4-0.7,27.3-8.4c14.7-18.9-13.3-53.9-18.9-66.5
	L747.2,591.4L747.2,591.4z M419.6,595.6c2.8,7,6.3,9.1,14.7,11.9c-0.7-2.1-0.7-4.2-1.4-5.6l-2.8-4.2L419.6,595.6z M580.6,595.6
	l-9.8,1.4c-0.7,3.5-2.1,7-2.8,10.5h1.4C575.7,604.7,580.6,601.2,580.6,595.6L580.6,595.6z M327.9,599.8l-9.8,1.4
	c0.7,10.5,2.1,21.7,7,27.3c4.2,6.3,14,11.2,23.1,13.3l5.6-20.3l-7-16.1C339.8,603.3,338.4,600.5,327.9,599.8z M683.5,601.2
	c-18.2-1.4-22.4,0.7-33.6,8.4l-2.8,17.5l5.6,14.7c11.2-2.1,18.9-8.4,25.9-14.7C680,618.7,681.4,610.3,683.5,601.2L683.5,601.2z
	 M393,601.2c-7.7,8.4-15.4,16.1-23.1,24.5l2.8,4.2l5.6,2.8l11.9-4.2c6.3,13.3,11.9,11.2,23.1,18.9c-0.7,8.4-2.1,5.6,0,11.9l5.6,4.2
	l4.2-2.8l13.3-28.7C422.4,625.7,407,611,393,601.2L393,601.2z M456.7,601.2c-1.4,8.4-1.4,15.4,1.4,21.7c6.3,0,7.7-0.7,11.9-2.8
	l5.6-13.3L456.7,601.2z M542.8,601.2l-14.7,5.6l-2.8,1.4l8.4,14.7c6.3,0,7.7-0.7,11.9-2.8C544.2,613.8,543.5,607.5,542.8,601.2
	L542.8,601.2z M606.5,601.2l-42,30.8c3.5,13.3,9.1,22.4,16.1,32.2l4.2-4.2l5.6-2.8l-2.8-8.4c11.2-7,16.1-9.8,24.5-18.9l13.3,2.8
	l5.6-5.6C624.7,615.9,616.3,607.5,606.5,601.2L606.5,601.2z M294.3,611.7L269.8,667l60.9-5.6l-5.6-5.6L294.3,611.7z M705.2,611.7
	l-35,49h2.8l58.1,5.6C722.7,649.5,718.5,624.3,705.2,611.7L705.2,611.7z M499.4,620.1l-7,4.2l1.4,2.8c7.7,0.7,11.2,1.4,16.1-2.8
	L499.4,620.1z M65.4,636.2l-4.2,7l5.6,1.4l8.4-7L65.4,636.2z M929.9,636.2l-4.2,1.4l4.2,5.6l4.2,1.4l5.6-1.4l-1.4-4.2l-4.2-2.8
	H929.9z M448.3,637.6l-11.9,25.9c9.8-0.7,11.9,0.7,18.9,5.6c0.7-12.6,5.6-23.1,2.8-30.8l-2.8-1.4L448.3,637.6L448.3,637.6z
	 M545.6,637.6l-5.6,4.2l5.6,27.3c7-4.9,8.4-7,18.9-5.6C560.3,655.8,556.1,639.7,545.6,637.6z M362.9,639l-2.8,8.4l8.4-4.2l-1.4-2.8
	L362.9,639z M636.6,639l-4.2,4.2h2.8l5.6,4.2L636.6,639z M94.8,640.4l-24.5,18.9l-14.7-4.2c0.7,3.5,20.3,56.7,21.7,58.1
	c15.4,7,39.9,14.7,33.6,42c-1.4,7-6.3,9.1-2.8,16.1c2.1-14,7.7-12.6,18.9-17.5C120.7,738.4,98.3,642.5,94.8,640.4L94.8,640.4z
	 M901.9,640.4c6.3,23.1-20.3,90.3-27.3,114.8c12.6,0,17.5,4.2,18.9,16.1l2.8-2.8c-13.3-28.7,2.1-49.7,30.1-55.3
	c7-20.3,14.7-40.6,18.9-58.1h-1.4C922.9,663.5,920.1,646.7,901.9,640.4L901.9,640.4z M111.6,641.8c-0.7,45.5,32.2,72.8,75.6,74.2
	l8.4-32.2C161.3,673.3,138.2,659.3,111.6,641.8L111.6,641.8z M468.6,679.6h11.9c1.4-6.3,2.1-6.3,5.6-10.5c14.7,4.2,18.9,0,28.7,1.4
	c4.9,2.8,4.2,2.1,5.6,8.4h11.9c0.7-11.9-1.4-23.8-5.6-35c-21-0.7-34.3-4.2-53.9,1.4C471.4,657.2,470,668.4,468.6,679.6L468.6,679.6z
	 M887.9,641.8c-20.3,21-51.1,31.5-82.6,42v1.4c4.9,9.8,3.5,28,16.1,30.8C847.3,709,904,681.7,887.9,641.8L887.9,641.8z M380.4,650.9
	l-11.9,7l2.8,1.4l18.9,14.7l2.8-8.4C392.3,655.1,388.8,653,380.4,650.9L380.4,650.9z M617.7,650.9c-3.5,2.1-7,4.9-9.8,7l2.8,16.1
	l21.7-16.1L617.7,650.9z M404.9,669.8l-1.4,10.5l5.6-5.6L404.9,669.8z M594.6,669.8l-2.8,1.4c1.4,5.6,2.1,5.6,5.6,8.4L594.6,669.8z
	 M220.8,671.2c0,0-27.3,41.3-20.3,47.6h37.8l13.3-8.4c-2.1-9.8,2.8-25.2-1.4-30.8C239,675.4,229.2,675.4,220.8,671.2L220.8,671.2z
	 M352.4,671.2c-0.7,11.9-2.1,24.5-2.8,36.4l33.6-13.3c-2.1-11.9-9.1-18.2-18.9-21.7L352.4,671.2z M648.5,671.2
	c-17.5,0-28,8.4-30.1,23.1l33.6,13.3C650.6,695,649.2,683.1,648.5,671.2L648.5,671.2z M778.7,671.2c-7.7,6.3-18.2,6.3-30.1,8.4
	c0.7,11.2,2.1,22.4,2.8,33.6c12.6,4.2,29.4,6.3,49,5.6v-4.2C794.8,695.7,791.3,683.1,778.7,671.2L778.7,671.2z M337,672.6
	c-12.6,6.3-63,3.5-69.3,11.9c-6.3,10.5-4.2,21,1.4,28.7c22.4,3.5,45.5,2.8,67.9-2.8C337,698.5,339.8,675.4,337,672.6L337,672.6z
	 M661.1,672.6c2.1,8.4,0,31.5,5.6,37.8c18.9,10.5,53.9,8.4,69.3-1.4l1.4-5.6l-4.2-21.7C709.4,676.8,682.1,677.5,661.1,672.6
	L661.1,672.6z M430.8,676.8c-8.4,4.2-11.9,7.7-18.9,13.3l1.4,2.8l18.9,16.1l27.3-2.8c-0.7-7-2.1-15.4-5.6-18.9l-9.8-10.5
	L430.8,676.8L430.8,676.8z M556.8,676.8l-13.3,10.5c-0.7,6.3-2.1,12.6-2.8,18.9c9.1,0.7,18.9,4.9,27.3,1.4l20.3-16.1l-11.9-13.3
	L556.8,676.8z M497.3,690.1c-5.6,4.9-7,7-9.8,14.7v1.4h25.9v-2.1l-4.2-11.9L497.3,690.1z M471.4,692.9l1.4,8.4l4.2-7L471.4,692.9z
	 M523.9,692.9l4.2,8.4l1.4-8.4H523.9z M126.3,705.5c16.1,51.1,16.8,63,62.3,85.4c-4.9-16.8-10.5-39.9-4.2-60.9l-1.4-1.4
	C156.4,728.6,142.4,716.7,126.3,705.5z M873.2,705.5c-14.7,15.4-32.9,17.5-56.7,24.5c6.3,21,0.7,44.1-4.2,60.9
	c33.6-16.1,48.3-30.8,58.1-72.8L873.2,705.5z M383.2,707.6c-7.7,7-20.3,10.5-32.2,13.3c-0.7,24.5,5.6,58.1,21.7,66.5
	c11.9,4.9,20.3-4.9,28.7-8.4C395.8,754.5,389.5,730.7,383.2,707.6z M614.9,707.6c-0.7,25.2-7,52.5-16.1,71.4
	c11.9,4.2,16.8,11.2,32.2,8.4c5.6-9.1,29.4-51.8,16.1-66.5L614.9,707.6z M400.7,711.8l11.9,58.1l4.2-1.4l40.6-37.8v-1.4L400.7,711.8
	z M597.4,711.8l-53.9,18.9l17.5,18.9l27.3,20.3C591.8,756.6,607.2,722.3,597.4,711.8L597.4,711.8z M490.3,718.8l-8.4,7
	c0.7,0.7,2.1,2.1,2.8,2.8c2.8,9.8,8.4,18.9,16.1,25.9l2.8-1.4c5.6-9.1,10.5-18.2,16.1-27.3C512.7,719.5,505,718.1,490.3,718.8z
	 M332.1,724.4l-18.9,4.2l2.8,1.4l24.5,18.9l-2.8-24.5H332.1L332.1,724.4z M663.2,724.4c-0.7,8.4-2.1,16.1-2.8,24.5l27.3-18.9
	l-2.8-1.4L663.2,724.4z M230.6,733.5l-33.6-1.4c-7.7,48.3,9.8,84.7,49,94.5C235.5,800,230.6,772,230.6,733.5L230.6,733.5z
	 M265.6,732.1l-20.3,1.4c-5.6,37.1,7.7,67.9,16.1,95.9c33.6,0.7,79.8,1.4,95.9-16.1C347.5,769.2,317.4,732.8,265.6,732.1
	L265.6,732.1z M724.1,732.1c-40.6,22.4-71.4,28-79.8,82.6l2.8,2.8c27.3,5.6,54.6,11.2,93.1,11.9c7.7-28.7,21-58.1,16.1-95.9
	L724.1,732.1z M770.3,733.5c0.7,37.8-4.2,67.9-16.1,93.1c39.9-9.8,56.7-46.2,49-94.5L770.3,733.5z M470,734.9
	c-11.9,21.7-37.1,31.5-52.5,49c4.9,11.2,8.4,17.5,17.5,24.5c26.6-5.6,40.6-25.2,56.7-42L470,734.9z M529.5,734.9l-20.3,30.8
	c7.7,14,37.1,46.9,56.7,42c11.2-3.5,13.3-13.3,17.5-23.1C565.2,767.8,547.7,751,529.5,734.9L529.5,734.9z M120.7,769.9
	c2.1,6.3,0.7,4.9,7,7l1.4-4.2l-1.4-2.8H120.7z M873.2,769.9v7c6.3-2.1,4.9-0.7,7-7H873.2z M141,776.9l-1.4,7
	c-6.3,4.9-8.4,7.7-18.9,5.6l1.4,2.8c44.1-0.7,35,20.3,47.6,51.1c21,7,29.4,21,44.8,32.2c0.7-26.6,18.9-19.6,25.9-37.8
	C208.2,832.9,171.1,790.9,141,776.9L141,776.9z M857.1,776.9c-11.9,13.3-78.4,58.1-97.3,60.9c7,18.2,25.2,10.5,25.9,37.8
	c16.1-10.5,30.1-23.8,47.6-35c-1.4-55.3,20.3-33.6,46.2-51.1c-7,1.4-9.8,0.7-16.1-1.4C862,784.6,859.9,781.1,857.1,776.9
	L857.1,776.9z M499.4,778.3l-16.1,17.5h35L499.4,778.3z M404.9,790.2c-7,7-16.8,11.2-28.7,13.3c-2.1,21.7,3.5,30.8,8.4,49
	c19.6-4.9,28.7-18.9,39.2-33.6C418.2,811.2,411.9,797.2,404.9,790.2L404.9,790.2z M594.6,790.2c-4.9,11.2-14.7,23.8-16.1,32.2
	c9.8,13.3,19.6,25.9,37.8,30.8c4.9-18.9,10.5-28,8.4-49C612.1,801.4,603.7,795.8,594.6,790.2L594.6,790.2z M494.5,809.1l-39.2,10.5
	l-24.5,18.9c5.6,14,55.3,70,70.7,67.9c17.5-2.1,60.9-51.8,67.9-67.9h-2.8C551.9,819.6,527.4,809.1,494.5,809.1L494.5,809.1z
	 M360.1,828c-18.2,13.3-62.3,18.2-91,14.7c23.8,38.5,62.3,33.6,104.3,18.9C372,851.1,366.4,832.9,360.1,828L360.1,828z M638,828
	c-3.5,11.2-7,22.4-9.8,33.6c42.7,14.7,80.5,18.9,104.3-18.9C697.5,846.9,663.9,836.4,638,828L638,828z M419.6,846.2l-27.3,20.3
	c10.5,22.4,58.8,76.3,94.5,44.8C455.3,900.8,438.5,869.3,419.6,846.2L419.6,846.2z M580.6,846.2c-9.1,24.5-40.6,56-65.1,65.1
	l1.4,2.8c47.6,8.4,76.3-13.3,93.1-47.6L580.6,846.2z M255.8,851.1c-2.8,18.9-6.3,30.1-23.1,36.4l2.8,4.2
	c20.3,6.3,29.4,18.9,43.4,30.8c21.7-2.8,44.1-9.8,55.3,11.9c4.2,7.7,0.7,12.6,8.4,17.5c-5.6-11.9-2.8-16.1,4.2-24.5
	c-19.6-21-44.1-35.7-67.9-52.5L255.8,851.1z M742.3,851.1c-18.9,32.2-63,48.3-88.2,75.6c7,9.1,9.8,12.6,4.2,24.5h4.2
	c4.9-37.1,30.1-32.2,60.9-28.7c11.9-15.4,27.3-23.1,44.8-33.6l-16.1-10.5C747.2,869.3,750.7,857.4,742.3,851.1L742.3,851.1z
	 M236.9,860.9l-7,5.6v7l7-4.2V860.9L236.9,860.9z M762.6,860.9l1.4,10.5l7,2.8C771,863.7,769.6,864.4,762.6,860.9L762.6,860.9z
	 M377.6,872.8c-13.3,10.5-35.7,16.1-58.1,13.3l43.4,36.4l56.7-4.2h-2.8C413.3,913.4,378.3,873.5,377.6,872.8L377.6,872.8z
	 M621.2,872.8c-8.4,18.9-20.3,37.1-39.2,44.8v1.4l56.7,1.4l43.4-35C655.5,889.6,639.4,879.1,621.2,872.8L621.2,872.8z M488.9,926
	c-17.5,9.8-86.1,9.1-116.2,8.4c4.2,14-7.7,21.7-5.6,24.5c23.8-18.9,48.3-13.3,62.3,11.9c21.7-0.7,39.2-0.7,60.9,0
	C477,949.8,495.9,940,488.9,926L488.9,926z M510.6,926c-2.1,19.6,11.9,25.9,0,44.8c17.5,0,51.1,2.8,63.7-2.8c14-42,51.8-7,62.3-11.9
	c-11.2-3.5-12.6-10.5-8.4-21.7C592.5,935.8,536.5,936.5,510.6,926L510.6,926z M353.8,937.9v7h7v-4.2l-1.4-2.8H353.8L353.8,937.9z
	 M640.8,937.9l-1.4,7h5.6l2.8-4.2l-1.4-2.8H640.8L640.8,937.9z M499.4,948.4c-2.1,7-3.5,7.7,1.4,13.3l2.8-1.4l1.4-4.2l-4.2-7h-1.4
	V948.4z"/>
</svg>
